<?xml version="1.0" encoding="iso-8859-1"?>
<!-- Generator: Adobe Illustrator 19.0.0, SVG Export Plug-In . SVG Version: 6.00 Build 0)  -->
<svg version="1.1" id="Capa_1" xmlns="http://www.w3.org/2000/svg" xmlns:xlink="http://www.w3.org/1999/xlink" x="0px" y="0px"
	 viewBox="0 0 512 512" style="enable-background:new 0 0 512 512;" xml:space="preserve">
<circle style="fill:#FF6838;" cx="256" cy="256" r="256"/>
<path style="fill:#AE4E32;" d="M510.524,283.524L290,63L172.334,183.333l91.207,91.207L116.667,422.974l82.735,82.735
	C217.61,509.819,236.55,512,256,512c50.454,0,97.493-14.604,137.136-39.803l2.364-2.364l0.505,0.505
	C458.608,429.362,502.165,361.712,510.524,283.524z"/>
<polygon style="fill:#FFFFFF;" points="339.666,115.333 290,115.333 290,63 222,63 222,115.333 172.334,115.333 172.334,183.333 
	222,183.333 222,312.333 290,312.333 290,183.333 339.666,183.333 "/>
<g>
	<polygon style="fill:#E0E0E0;" points="290,115.333 290,63 256,63 256,312.333 290,312.333 290,183.333 339.666,183.333 
		339.666,115.333 	"/>
	<rect x="155.67" y="301.64" style="fill:#E0E0E0;" width="200.67" height="62.67"/>
</g>
<g>
	<rect x="256" y="301.64" style="fill:#C0C0C0;" width="100.33" height="62.67"/>
	<rect x="116.67" y="360.31" style="fill:#C0C0C0;" width="278.67" height="62.67"/>
</g>
<rect x="256" y="360.31" style="fill:#758F9B;" width="139.33" height="62.67"/>
<g>
</g>
<g>
</g>
<g>
</g>
<g>
</g>
<g>
</g>
<g>
</g>
<g>
</g>
<g>
</g>
<g>
</g>
<g>
</g>
<g>
</g>
<g>
</g>
<g>
</g>
<g>
</g>
<g>
</g>
</svg>
