<?xml version="1.0" encoding="iso-8859-1"?>
<!-- Generator: Adobe Illustrator 19.0.0, SVG Export Plug-In . SVG Version: 6.00 Build 0)  -->
<svg version="1.1" id="Capa_1" xmlns="http://www.w3.org/2000/svg" xmlns:xlink="http://www.w3.org/1999/xlink" x="0px" y="0px"
	 viewBox="0 0 480.151 480.151" style="enable-background:new 0 0 480.151 480.151;" xml:space="preserve">
<path style="fill:#7FCCCB;" d="M156.075,472.151v-104h-43.728c-7.495,0.005-14.678-2.995-19.944-8.328
	c-5.335-5.405-8.327-12.694-8.328-20.288v-5.872c-0.002-4.858,1.222-9.638,3.56-13.896c24.803-45.27,59.569-84.311,101.672-114.176
	l1.528-1.088c11.581-8.208,24.078-15.038,37.24-20.352h69.28c6.992-0.002,13.829,2.057,19.656,5.92l23.864,15.784
	c20.592,13.787,36.53,33.482,45.72,56.496c6.273,15.574,9.492,32.21,9.48,49v160.8H156.075z"/>
<path style="fill:#88D0EF;" d="M320.267,213.151c-12.421,36.666-30.733,71.063-54.216,101.84l-12.376,16.36
	c-2.654,3.532-1.942,8.547,1.59,11.201c3.532,2.654,8.547,1.942,11.201-1.59c0.003-0.004,0.006-0.007,0.008-0.011l12.36-16.336
	c24.537-32.151,43.666-68.09,56.632-106.4c2.216-6.624,3.368-10.664,4-13.328l-13.664-9.04c-0.918,1.189-1.496,2.604-1.672,4.096
	C323.214,204.445,321.922,208.864,320.267,213.151L320.267,213.151z"/>
<g>
	<path style="fill:#F8C09C;" d="M253.339,327.623l-0.208-0.208c-4.499-4.642-10.687-7.263-17.152-7.264h-19.904l-22.208-88.8
		l-6.136-24.552c-5.568,4-11,8.165-16.296,12.496l-0.24,0.192c-4.939,4.037-9.755,8.216-14.448,12.536
		c-0.304,0.272-0.592,0.56-0.888,0.84c-27.312,25.068-50.35,54.424-68.208,86.912c-2.342,4.255-3.572,9.031-3.576,13.888v5.872
		c0.001,7.594,2.993,14.883,8.328,20.288c5.266,5.333,12.449,8.333,19.944,8.328h123.832c13.197,0.001,23.897-10.697,23.898-23.894
		C260.078,338.047,257.661,332.081,253.339,327.623L253.339,327.623z"/>
	<circle style="fill:#F8C09C;" cx="252.075" cy="104.151" r="96"/>
</g>
<g>
	<path style="fill:#88D0EF;" d="M252.075,8.151c-52.904-0.114-95.884,42.68-95.999,95.585c-0.025,11.682,2.086,23.269,6.231,34.191
		l168.464-88.672C312.849,23.497,283.454,8.144,252.075,8.151L252.075,8.151z"/>
	<path style="fill:#88D0EF;" d="M228.075,368.151l-40.344-161.376c-11.151,8.016-21.802,16.704-31.896,26.016l16.24,135.36H228.075z
		"/>
</g>
<path style="fill:#F8C09C;" d="M156.731,232.015c4.704-4.304,9.52-8.483,14.448-12.536
	C166.235,223.511,161.435,227.719,156.731,232.015z"/>
<g>
	<path style="fill:#88D0EF;" d="M155.835,232.791v0.064c0.296-0.28,0.584-0.568,0.888-0.84
		C156.435,232.279,156.123,232.527,155.835,232.791z"/>
	<path style="fill:#88D0EF;" d="M216.075,320.151l-22.208-88.824L216.075,320.151z"/>
	<path style="fill:#88D0EF;" d="M171.427,219.271c5.301-4.32,10.733-8.485,16.296-12.496c-5.664,4.059-11.181,8.293-16.552,12.704
		L171.427,219.271z"/>
</g>
<path style="fill:#D1E3EE;" d="M268.075,160.151c-4.418-0.001-7.999-3.583-7.998-8.002c0-2.121,0.843-4.155,2.342-5.654l32-32
	c3.178-3.069,8.242-2.982,11.312,0.196c2.994,3.1,2.994,8.015,0,11.116l-32,32C272.231,159.307,270.197,160.15,268.075,160.151
	L268.075,160.151z"/>
<path style="fill:#2BB3CE;" d="M298.531,20.247l-63.256,26.544l-39.936-19.952c-4.653,3.407-8.988,7.227-12.952,11.416l33.4,16.696
	l-56.136,23.544c-1.686,6.113-2.758,12.378-3.2,18.704l157.68-66.128C309.3,26.959,304.074,23.333,298.531,20.247z"/>
<path style="fill:#F8C09C;" d="M348.075,320.151h48v152h-48V320.151z"/>
<path style="fill:#DD527C;" d="M295.955,160.151h-60.176c-4.418,0-8-3.582-8-8s3.582-8,8-8h60.176c4.418,0,8,3.582,8,8
	S300.374,160.151,295.955,160.151z"/>
<path d="M356.075,472.151v-171.72c0-4.418-3.582-8-8-8s-8,3.582-8,8v171.72c0,4.418,3.582,8,8,8S356.075,476.569,356.075,472.151z"
	/>
<path d="M295.987,160.151c4.418,0,8-3.582,8-8s-3.582-8-8-8h-8.568l18.344-18.344c2.97-3.271,2.726-8.33-0.545-11.301
	c-3.046-2.765-7.692-2.77-10.743-0.011l-29.68,29.656h-28.984c-4.418,0-8,3.582-8,8s3.582,8,8,8L295.987,160.151z"/>
<path d="M404.075,311.351c0.03-17.822-3.396-35.482-10.088-52c-9.757-24.534-26.746-45.519-48.712-60.168l-25.064-16.632
	c43.381-37.645,48.032-103.33,10.387-146.711s-103.33-48.032-146.711-10.387s-48.032,103.33-10.387,146.711
	c6.426,7.406,13.868,13.865,22.103,19.187l-10.888,7.72c-43.044,30.613-78.618,70.553-104.064,116.84
	c-2.99,5.44-4.563,11.545-4.576,17.752v5.872c-0.025,9.706,3.801,19.025,10.64,25.912c6.793,6.836,16.027,10.687,25.664,10.704
	h35.696v96c0,4.418,3.582,8,8,8s8-3.582,8-8v-96h72.104c17.483,0.057,31.702-14.07,31.759-31.553
	c0.006-1.695-0.125-3.389-0.391-5.063l11.264-14.896c24.534-32.153,43.663-68.091,56.632-106.4c0.656-1.976,1.2-3.656,1.688-5.2
	c18.944,12.831,33.598,31.056,42.064,52.312c5.899,14.617,8.915,30.237,8.88,46v160.8c0,4.418,3.582,8,8,8s8-3.582,8-8
	L404.075,311.351z M318.299,46.351l-151.424,79.32c-2.809-10.604-3.489-21.66-2-32.528l140.256-59.056
	C309.926,37.717,314.338,41.826,318.299,46.351z M288.075,23.911l-53.512,22.52l-31.104-15.552
	C228.571,14.107,260.558,11.473,288.075,23.911z M189.883,41.983l25.256,12.632l-45.52,19.136
	C174.007,61.825,180.919,50.989,189.883,41.983L189.883,41.983z M172.259,140.951l155.512-81.504
	c24.638,41.826,10.705,95.706-31.122,120.345s-95.706,10.705-120.345-31.122C174.829,146.165,173.479,143.589,172.259,140.951z
	 M217.859,360.151h-38.64l-14.648-124.544c5.92-5.312,12.08-10.32,18.36-15.2L217.859,360.151z M98.123,354.191
	c-3.881-3.889-6.057-9.162-6.048-14.656v-5.872c-0.001-3.512,0.883-6.967,2.568-10.048c14.95-27.166,33.597-52.127,55.408-74.168
	l7.416,62.704h-25.392c-4.418,0-8,3.582-8,8s3.582,8,8,8h27.2l3.76,32h-50.656C107.024,360.137,101.895,357.993,98.123,354.191z
	 M247.467,355.487c-2.979,2.995-7.032,4.675-11.256,4.664h-1.856l-8-32h9.656c4.394,0.029,8.586,1.849,11.608,5.04
	C253.608,339.44,253.54,349.319,247.467,355.487L247.467,355.487z M266.083,314.991l-6.152,8.136
	c-0.368-0.408-0.632-0.88-1.016-1.28c-6.02-6.181-14.276-9.676-22.904-9.696h-13.656l-25.48-102.072l14.496-10.272
	c30.973,13.256,66.462,10.587,95.104-7.152l16.8,11.104c-0.552,2-1.44,4.944-2.928,9.392
	C307.911,249.819,289.583,284.217,266.083,314.991L266.083,314.991z"/>
<g>
</g>
<g>
</g>
<g>
</g>
<g>
</g>
<g>
</g>
<g>
</g>
<g>
</g>
<g>
</g>
<g>
</g>
<g>
</g>
<g>
</g>
<g>
</g>
<g>
</g>
<g>
</g>
<g>
</g>
</svg>
